<?xml version="1.0" encoding="UTF-8"?>
<svg version="1.1" xmlns="http://www.w3.org/2000/svg" width="325" height="92">
<path d="M0 0 C3.29158865 -0.05905417 6.58303756 -0.09394375 9.875 -0.125 C10.7928125 -0.14175781 11.710625 -0.15851562 12.65625 -0.17578125 C28.6397096 -0.28834082 28.6397096 -0.28834082 34.5625 4.5 C38.4350656 8.47186216 38.26529132 11.16327898 38.234375 16.51953125 C37.94091271 19.62534046 36.85655614 21.52459181 35 24 C35 27.12241798 37.06692692 28.65688111 39 31 C40.60725691 34.21451382 40.47397924 37.51333076 40 41 C37.30455136 46.10209922 34.4785689 49.17381037 29 51 C26.64319787 51.08397157 24.28405919 51.10728187 21.92578125 51.09765625 C20.90003242 51.09553383 20.90003242 51.09553383 19.8535614 51.09336853 C17.67316278 51.08777876 15.49286749 51.07522822 13.3125 51.0625 C11.83268378 51.05748367 10.35286594 51.052921 8.87304688 51.04882812 C5.24866443 51.03781271 1.6243423 51.02055512 -2 51 C-2.05075859 44.54048014 -2.08575822 38.08101183 -2.10986328 31.62133789 C-2.11991357 29.42437823 -2.13355592 27.22743193 -2.15087891 25.03051758 C-2.17516969 21.87057192 -2.18649294 18.71080332 -2.1953125 15.55078125 C-2.20563507 14.57039383 -2.21595764 13.59000641 -2.22659302 12.57991028 C-2.22797609 4.15143641 -2.22797609 4.15143641 0 0 Z M11 10 C11 13.63 11 17.26 11 21 C18.22358742 21.64082804 18.22358742 21.64082804 24.75 19.3125 C26.2080387 17.053248 26.2080387 17.053248 26 14.375 C25.22458557 11.91713534 25.22458557 11.91713534 23.265625 10.859375 C20.60894073 9.85166717 18.58230327 9.8004657 15.75 9.875 C13.39875 9.936875 13.39875 9.936875 11 10 Z M11 31 C11 34.63 11 38.26 11 42 C18.76785462 42.40704276 18.76785462 42.40704276 26 40 C27.33187793 38.88833136 27.33187793 38.88833136 27.1875 36.0625 C27.33278733 32.89107141 27.33278733 32.89107141 25 31 C21.64255888 30.75622117 21.64255888 30.75622117 17.875 30.875 C16.59367187 30.89304687 15.31234375 30.91109375 13.9921875 30.9296875 C13.00476563 30.95289062 12.01734375 30.97609375 11 31 Z " fill="#064AA6" transform="translate(276,23)"/>
<path d="M0 0 C3.96 0 7.92 0 12 0 C12 6.27 12 12.54 12 19 C17.15962151 18.52867157 17.15962151 18.52867157 22 17 C24.1429993 14.25626774 25.0093511 11.30740451 26 8 C26.57495935 6.47598112 27.15766544 4.95485018 27.75 3.4375 C28.1625 2.303125 28.575 1.16875 29 0 C33.62 0 38.24 0 43 0 C41.27276525 5.36351844 39.41872421 10.66205091 37.4375 15.9375 C36.81681641 17.59072266 36.81681641 17.59072266 36.18359375 19.27734375 C35 22 35 22 33 24 C33.35374921 27.76120389 34.66039106 30.56945517 36.50390625 33.828125 C36.99697266 34.70984375 37.49003906 35.5915625 37.99804688 36.5 C38.51431641 37.4075 39.03058594 38.315 39.5625 39.25 C40.586328 41.06675552 41.60855591 42.88441404 42.62890625 44.703125 C43.08338135 45.50395508 43.53785645 46.30478516 44.00610352 47.12988281 C45 49 45 49 45 50 C40.05 50 35.1 50 30 50 C29.3709375 48.64003906 28.741875 47.28007813 28.09375 45.87890625 C27.2307481 44.10600016 26.36607695 42.33390593 25.5 40.5625 C25.09007812 39.66466797 24.68015625 38.76683594 24.2578125 37.84179688 C23.83242187 36.98779297 23.40703125 36.13378906 22.96875 35.25390625 C22.59169922 34.46314697 22.21464844 33.6723877 21.82617188 32.85766602 C19.48881898 30.09561673 19.48881898 30.09561673 12 30 C12 36.6 12 43.2 12 50 C8.04 50 4.08 50 0 50 C0 33.5 0 17 0 0 Z " fill="#020202" transform="translate(134,24)"/>
<path d="M0 0 C3.50096725 2.1738032 5.54268584 4.61414492 7.3125 8.375 C7.5625 12.25 7.5625 12.25 7.3125 15.375 C3.3525 15.375 -0.6075 15.375 -4.6875 15.375 C-5.3475 13.725 -6.0075 12.075 -6.6875 10.375 C-7.69219623 9.1504822 -7.69219623 9.1504822 -9.71875 9.2421875 C-10.5334375 9.24476562 -11.348125 9.24734375 -12.1875 9.25 C-13.0021875 9.24742188 -13.816875 9.24484375 -14.65625 9.2421875 C-16.68280377 9.1504822 -16.68280377 9.1504822 -17.6875 10.375 C-17.72813832 12.04117115 -17.730221 13.70888095 -17.6875 15.375 C-16.99785156 15.61734375 -16.30820313 15.8596875 -15.59765625 16.109375 C4.82084725 23.39169449 4.82084725 23.39169449 8.3125 30.375 C8.72843526 34.89429654 8.87098834 39.02287033 7.125 43.25 C4.23527038 46.63795887 1.55889072 48.95953643 -2.6875 50.375 C-19.46587244 51.51346576 -19.46587244 51.51346576 -26.6875 46.375 C-30.99400556 42.3997641 -31.30712022 38.9856018 -31.6875 33.375 C-29.75190687 33.23995862 -27.813628 33.14298871 -25.875 33.0625 C-24.79605469 33.00449219 -23.71710938 32.94648437 -22.60546875 32.88671875 C-19.6875 33.375 -19.6875 33.375 -17.92578125 35.83203125 C-17.51714844 36.67121094 -17.10851562 37.51039062 -16.6875 38.375 C-14.45859005 39.48945498 -13.15694894 39.53980286 -10.6875 39.5625 C-9.98625 39.57667969 -9.285 39.59085938 -8.5625 39.60546875 C-6.44225062 39.54012323 -6.44225062 39.54012323 -4.6875 37.375 C-4.52062552 34.79145782 -4.52062552 34.79145782 -4.6875 32.375 C-5.29335937 32.20484375 -5.89921875 32.0346875 -6.5234375 31.859375 C-26.25172617 26.15334689 -26.25172617 26.15334689 -31.0625 18.0625 C-32.17052818 13.29797881 -31.37114488 9.14443381 -29.625 4.625 C-22.67024147 -3.45149378 -9.40703908 -4.20051651 0 0 Z " fill="#0448A6" transform="translate(216.6875,24.625)"/>
<path d="M0 0 C3.22409511 1.9814032 5.48091292 3.97890674 7.375 7.3125 C7.9638136 10.01500345 8.18686482 12.53750615 8.375 15.3125 C4.415 15.3125 0.455 15.3125 -3.625 15.3125 C-4.285 13.6625 -4.945 12.0125 -5.625 10.3125 C-8.14975462 9.05012269 -9.93700466 9.21393596 -12.75 9.25 C-13.66007812 9.25902344 -14.57015625 9.26804687 -15.5078125 9.27734375 C-16.20648438 9.28894531 -16.90515625 9.30054688 -17.625 9.3125 C-17.625 11.6225 -17.625 13.9325 -17.625 16.3125 C-16.94695313 16.48265625 -16.26890625 16.6528125 -15.5703125 16.828125 C2.0077413 21.40523596 2.0077413 21.40523596 6.4375 26 C9.26316472 30.83097517 10.20785002 35.03315304 8.8125 40.52734375 C6.82240912 45.29823127 4.25497341 47.66023201 -0.49609375 49.62890625 C-7.65379889 51.92725194 -14.50302427 51.72094753 -21.625 49.3125 C-25.766716 46.94292829 -28.83995985 44.38185269 -30.55859375 39.8515625 C-31.125 37.375 -31.125 37.375 -31.625 33.3125 C-27.335 33.3125 -23.045 33.3125 -18.625 33.3125 C-17.965 34.9625 -17.305 36.6125 -16.625 38.3125 C-14.10024538 39.57487731 -12.31299534 39.41106404 -9.5 39.375 C-8.58992188 39.36597656 -7.67984375 39.35695312 -6.7421875 39.34765625 C-6.04351562 39.33605469 -5.34484375 39.32445312 -4.625 39.3125 C-4.625 37.3325 -4.625 35.3525 -4.625 33.3125 C-8.51491566 31.15143575 -12.29402044 29.7800083 -16.5625 28.5 C-21.95153124 26.76398123 -25.86405951 24.57246495 -29.625 20.3125 C-31.48118207 16.60013586 -31.07309981 12.36406912 -30.625 8.3125 C-28.41849311 3.81776373 -26.10925093 1.49713507 -21.625 -0.6875 C-15.03262199 -2.88495934 -6.36186979 -2.98250228 0 0 Z " fill="#020202" transform="translate(41.625,24.6875)"/>
<path d="M0 0 C4.29 0 8.58 0 13 0 C17.32519244 9.18788451 21.07681741 18.56037945 24.78588867 28.01025391 C25.82442707 30.65537787 26.86795681 33.29849407 27.91210938 35.94140625 C28.57320682 37.6196774 29.23402474 39.29805869 29.89453125 40.9765625 C30.20695267 41.76809723 30.51937408 42.55963196 30.84126282 43.37515259 C33 48.88424529 33 48.88424529 33 50 C28.38 50 23.76 50 19 50 C18.01 47.69 17.02 45.38 16 43 C9.73 42.67 3.46 42.34 -3 42 C-3.66 44.31 -4.32 46.62 -5 49 C-6 50 -6 50 -8.94140625 50.09765625 C-10.13636719 50.08605469 -11.33132812 50.07445312 -12.5625 50.0625 C-14.35880859 50.04896484 -14.35880859 50.04896484 -16.19140625 50.03515625 C-17.11824219 50.02355469 -18.04507813 50.01195312 -19 50 C-17.07581383 44.06764918 -14.99181355 38.22741244 -12.71484375 32.421875 C-12.41308731 31.64741028 -12.11133087 30.87294556 -11.8004303 30.07501221 C-10.84817549 27.63253356 -9.89287077 25.19126128 -8.9375 22.75 C-8.29342271 21.09903521 -7.64954091 19.44799413 -7.00585938 17.796875 C-5.82660254 14.77395846 -4.6467713 11.75127013 -3.46459961 8.72949219 C-3.22938095 8.12820496 -2.99416229 7.52691772 -2.7518158 6.90740967 C-1.84296896 4.60160117 -0.92047629 2.30119073 0 0 Z M6 17 C5.16260219 19.1234016 4.33019717 21.2487728 3.5 23.375 C3.0359375 24.55835938 2.571875 25.74171875 2.09375 26.9609375 C0.88712206 29.7753244 0.88712206 29.7753244 1 32 C4.96 32 8.92 32 13 32 C12.21710425 29.68418241 11.42424269 27.37267059 10.625 25.0625 C10.40328125 24.40314453 10.1815625 23.74378906 9.953125 23.06445312 C8.87090848 19.32423336 8.87090848 19.32423336 6 17 Z " fill="#020202" transform="translate(96,24)"/>
<path d="M0 0 C4.29 0 8.58 0 13 0 C13 12.87 13 25.74 13 39 C20.26 39 27.52 39 35 39 C35 42.63 35 46.26 35 50 C23.45 50 11.9 50 0 50 C0 33.5 0 17 0 0 Z " fill="#0648A4" transform="translate(233,24)"/>
<path d="M0 0 C3.96 0 7.92 0 12 0 C12 16.5 12 33 12 50 C8.04 50 4.08 50 0 50 C0 33.5 0 17 0 0 Z " fill="#010101" transform="translate(59,24)"/>
<path d="M0 0 C0.99 0 1.98 0 3 0 C2.835 0.763125 2.67 1.52625 2.5 2.3125 C1.90854604 5.03596236 1.90854604 5.03596236 2 8 C1.401875 8.103125 0.80375 8.20625 0.1875 8.3125 C-2.07941634 8.80156999 -2.07941634 8.80156999 -3.25 10.5625 C-6.17481966 12.96503044 -9.31819938 12.18107216 -13 12 C-13 11.34 -13 10.68 -13 10 C-14.65 10.33 -16.3 10.66 -18 11 C-17.85915204 12.79206547 -17.71216299 14.58364917 -17.5625 16.375 C-17.48128906 17.37273438 -17.40007812 18.37046875 -17.31640625 19.3984375 C-17.15034374 21.97927613 -17.15034374 21.97927613 -16 24 C-13.48036578 24.35672241 -10.98666757 24.44375117 -8.4453125 24.55859375 C-5.59071013 25.0738814 -4.9244568 25.938082 -3 28 C-2.01 28 -1.02 28 0 28 C0 28.99 0 29.98 0 31 C-9.57 31 -19.14 31 -29 31 C-28.67 30.34 -28.34 29.68 -28 29 C-27.84733388 27.26131256 -27.75067404 25.51752499 -27.68359375 23.7734375 C-27.64169922 22.7421875 -27.59980469 21.7109375 -27.55664062 20.6484375 C-27.51732422 19.56820312 -27.47800781 18.48796875 -27.4375 17.375 C-27.39431641 16.28703125 -27.35113281 15.1990625 -27.30664062 14.078125 C-27.2003547 11.3855483 -27.09831943 8.69287747 -27 6 C-26.01 6 -25.02 6 -24 6 C-24 6.66 -24 7.32 -24 8 C-22.35 8 -20.7 8 -19 8 C-19 6.35 -19 4.7 -19 3 C-15.9020403 1.45102015 -12.73783448 2.16760461 -9.375 2.4375 C-8.66859375 2.48970703 -7.9621875 2.54191406 -7.234375 2.59570312 C-5.48920013 2.72541207 -3.74454275 2.86204954 -2 3 C-3.32 4.32 -4.64 5.64 -6 7 C-3.00675737 5.9024777 -2.15389099 5.32317108 -0.75 2.375 C-0.5025 1.59125 -0.255 0.8075 0 0 Z " fill="#0149AD" transform="translate(303,42)"/>
<path d="M0 0 C-0.20496094 0.66386719 -0.40992188 1.32773437 -0.62109375 2.01171875 C-0.89050781 2.89472656 -1.15992188 3.77773438 -1.4375 4.6875 C-1.70433594 5.55761719 -1.97117188 6.42773438 -2.24609375 7.32421875 C-2.96344529 9.87025921 -3.517541 12.4003423 -4 15 C-4.99 14.67 -5.98 14.34 -7 14 C-7 13.01 -7 12.02 -7 11 C-7.99 11 -8.98 11 -10 11 C-10 12.65 -10 14.3 -10 16 C-10.99 16 -11.98 16 -13 16 C-13.33 12.7 -13.66 9.4 -14 6 C-13.01 5.67 -12.02 5.34 -11 5 C-10.175 4.175 -9.35 3.35 -8.5 2.5 C-5.37616442 -0.62383558 -4.25193049 -1.41731016 0 0 Z " fill="#024AAD" transform="translate(200,26)"/>
<path d="M0 0 C17.21104446 -0.80676771 17.21104446 -0.80676771 23 4 C26.09172208 7.47818734 26.9492031 9.21264802 27.25 13.875 C27.1675 14.90625 27.085 15.9375 27 17 C23.04 17 19.08 17 15 17 C14.34 15.35 13.68 13.7 13 12 C11.41727399 10.41727399 9.61965997 10.65264253 7.4375 10.4375 C6.61121094 10.35371094 5.78492188 10.26992188 4.93359375 10.18359375 C4.29550781 10.12300781 3.65742188 10.06242187 3 10 C3 9.67 3 9.34 3 9 C4.60379341 8.94583812 6.20811406 8.90713362 7.8125 8.875 C8.70582031 8.85179687 9.59914062 8.82859375 10.51953125 8.8046875 C13 9 13 9 16 11 C16 12.65 16 14.3 16 16 C19.3 16 22.6 16 26 16 C25.67 14.68 25.34 13.36 25 12 C24.236875 11.979375 23.47375 11.95875 22.6875 11.9375 C20 11 20 11 18.1875 7.5 C17 4 17 4 17 3 C11.39 2.34 5.78 1.68 0 1 C0 0.67 0 0.34 0 0 Z " fill="#104994" transform="translate(197,23)"/>
<path d="M0 0 C0.66 0.33 1.32 0.66 2 1 C1.9175 1.763125 1.835 2.52625 1.75 3.3125 C1.70833333 6.14583333 1.70833333 6.14583333 4 7.8125 C4.66 8.204375 5.32 8.59625 6 9 C4.35 9.33 2.7 9.66 1 10 C1 10.66 1 11.32 1 12 C-0.65 11.67 -2.3 11.34 -4 11 C-3.67 10.01 -3.34 9.02 -3 8 C-3.99 8.66 -4.98 9.32 -6 10 C-5.67 11.65 -5.34 13.3 -5 15 C-8.42156094 13.93813626 -9.03200161 12.93942552 -10.75 9.6875 C-11.84911426 6.44511292 -12.30531083 4.35841908 -12 1 C-11.34 1 -10.68 1 -10 1 C-10 3.31 -10 5.62 -10 8 C-9.01 8 -8.02 8 -7 8 C-7.33 6.35 -7.66 4.7 -8 3 C-6.125 2.375 -6.125 2.375 -4 2 C-3.34 2.66 -2.68 3.32 -2 4 C-2.66 4 -3.32 4 -4 4 C-4 4.66 -4 5.32 -4 6 C-3.34 6 -2.68 6 -2 6 C-1.34 4.02 -0.68 2.04 0 0 Z " fill="#08479E" transform="translate(197,34)"/>
<path d="M0 0 C0.66 0 1.32 0 2 0 C2.33 0.99 2.66 1.98 3 3 C3.66 2.67 4.32 2.34 5 2 C6.66194453 1.64386903 8.328451 1.30791692 10 1 C10.99435406 4.09354597 10.87840996 5.90279155 10 9 C8.37399059 8.9129995 6.74910322 8.8048219 5.125 8.6875 C4.22007812 8.62949219 3.31515625 8.57148437 2.3828125 8.51171875 C0 8 0 8 -2 5 C-1.48275862 1.48275862 -1.48275862 1.48275862 0 0 Z " fill="#0349AD" transform="translate(192,42)"/>
<path d="M0 0 C3.35414799 -0.02929977 6.70826253 -0.0468989 10.0625 -0.0625 C11.00544922 -0.07087891 11.94839844 -0.07925781 12.91992188 -0.08789062 C18.0630768 -0.10581103 22.93258427 0.10740389 28 1 C28 1.33 28 1.66 28 2 C19.94641862 2.14525497 12.02124152 1.71413279 4 1 C4 2.32 4 3.64 4 5 C3.35546875 5.20367188 2.7109375 5.40734375 2.046875 5.6171875 C-0.31153872 6.8667935 -0.31153872 6.8667935 -0.609375 9.8203125 C-0.65578125 10.91085938 -0.7021875 12.00140625 -0.75 13.125 C-0.80671875 14.22070312 -0.8634375 15.31640625 -0.921875 16.4453125 C-0.94765625 17.28835937 -0.9734375 18.13140625 -1 19 C-1.33 19 -1.66 19 -2 19 C-2.05428973 16.77110504 -2.09292338 14.54182529 -2.125 12.3125 C-2.15980469 10.45044922 -2.15980469 10.45044922 -2.1953125 8.55078125 C-2.01032021 5.18762143 -1.45767895 3.0014413 0 0 Z " fill="#0B4081" transform="translate(276,23)"/>
<path d="M0 0 C-4.73904712 3.75855462 -8.07375665 4.12214793 -14.07421875 4.09765625 C-15.09996758 4.09553383 -15.09996758 4.09553383 -16.1464386 4.09336853 C-18.32683722 4.08777876 -20.50713251 4.07522822 -22.6875 4.0625 C-24.16731622 4.05748367 -25.64713406 4.052921 -27.12695312 4.04882812 C-30.75133557 4.03781271 -34.3756577 4.02055512 -38 4 C-38 3.67 -38 3.34 -38 3 C-23.15 2.505 -23.15 2.505 -8 2 C-7.67 1.34 -7.34 0.68 -7 0 C-2.52459016 -1.26229508 -2.52459016 -1.26229508 0 0 Z " fill="#0F468F" transform="translate(312,70)"/>
<path d="M0 0 C-0.99 0.66 -1.98 1.32 -3 2 C-3 3.32 -3 4.64 -3 6 C-8.53846154 6.36923077 -8.53846154 6.36923077 -10.875 4.5 C-11.24625 4.005 -11.6175 3.51 -12 3 C-8.30922209 -1.2443946 -5.30849083 -1.32712271 0 0 Z " fill="#024BAE" transform="translate(223,65)"/>
<path d="M0 0 C3.6773705 0.20429836 4.80084985 0.77932011 7.3125 3.5625 C9.41084636 7.83690924 9.32385526 10.3040987 9 15 C8.34 14.01 7.68 13.02 7 12 C6.34 12 5.68 12 5 12 C5 9.69 5 7.38 5 5 C2.525 4.01 2.525 4.01 0 3 C0 2.01 0 1.02 0 0 Z " fill="#114999" transform="translate(307,49)"/>
<path d="M0 0 C2.49005677 2.49005677 2.29703766 3.37470732 2.3125 6.8125 C2.23382789 11.000277 1.7710878 13.69601069 -1 17 C-1.66 17.33 -2.32 17.66 -3 18 C-3.33 16.35 -3.66 14.7 -4 13 C-2.68 13 -1.36 13 0 13 C0 8.71 0 4.42 0 0 Z " fill="#114992" transform="translate(223,53)"/>
<path d="M0 0 C3.96 0 7.92 0 12 0 C11.67 0.66 11.34 1.32 11 2 C8.36 2 5.72 2 3 2 C3.66 5.3 4.32 8.6 5 12 C2.69857565 10.21825212 1.19965609 8.83695835 0.51171875 5.953125 C0.27676898 3.9753389 0.13248542 1.98728128 0 0 Z " fill="#0F4586" transform="translate(185,58)"/>
<path d="M0 0 C0.66 0 1.32 0 2 0 C2.82626935 4.59038526 3.43126866 8.50172706 2 13 C-0.5625 14.875 -0.5625 14.875 -3 16 C-3 13.30646447 -2.86480264 11.51578949 -2 9 C-1.195625 8.319375 -1.195625 8.319375 -0.375 7.625 C0.305625 6.820625 0.305625 6.820625 1 6 C0.76716851 2.85078091 0.76716851 2.85078091 0 0 Z " fill="#0C499D" transform="translate(300,34)"/>
<path d="M0 0 C0.33 0 0.66 0 1 0 C1.56364659 10.75103676 1.56364659 10.75103676 -2 15 C-2.99 15.495 -2.99 15.495 -4 16 C-4.33 14.35 -4.66 12.7 -5 11 C-4.01 10.34 -3.02 9.68 -2 9 C-1.20562077 6.81494871 -1.20562077 6.81494871 -0.8125 4.375 C-0.65394531 3.55773438 -0.49539063 2.74046875 -0.33203125 1.8984375 C-0.22246094 1.27195313 -0.11289062 0.64546875 0 0 Z " fill="#134B9C" transform="translate(313,32)"/>
<path d="M0 0 C1.65 0 3.3 0 5 0 C6.31625194 2.63250388 5.74813658 3.80179056 5.0625 6.625 C4.86785156 7.44226562 4.67320312 8.25953125 4.47265625 9.1015625 C4.23869141 10.04128906 4.23869141 10.04128906 4 11 C3.67 11 3.34 11 3 11 C2.731875 9.88625 2.46375 8.7725 2.1875 7.625 C1.34190981 3.78159049 1.34190981 3.78159049 -2 2 C-1.34 2 -0.68 2 0 2 C0 1.34 0 0.68 0 0 Z " fill="#0C4A9E" transform="translate(300,51)"/>
<path d="M0 0 C5.7097955 0.41778991 8.60957142 2.57546571 13 6 C12.67 6.66 12.34 7.32 12 8 C10.02 7.34 8.04 6.68 6 6 C6.33 5.01 6.66 4.02 7 3 C4.69 2.67 2.38 2.34 0 2 C0 1.34 0 0.68 0 0 Z " fill="#134990" transform="translate(210,45)"/>
<path d="M0 0 C0.33 0.66 0.66 1.32 1 2 C1.66 2.33 2.32 2.66 3 3 C2.35546875 3.23460937 1.7109375 3.46921875 1.046875 3.7109375 C-1.2077908 4.81161073 -1.2077908 4.81161073 -1.609375 7.1640625 C-1.65578125 7.97617187 -1.7021875 8.78828125 -1.75 9.625 C-1.80671875 10.44226562 -1.8634375 11.25953125 -1.921875 12.1015625 C-1.94765625 12.72804688 -1.9734375 13.35453125 -2 14 C-2.33 14 -2.66 14 -3 14 C-3.08082094 12.04233719 -3.13910778 10.08373272 -3.1875 8.125 C-3.22230469 7.03445312 -3.25710938 5.94390625 -3.29296875 4.8203125 C-3.19628906 3.88960937 -3.09960938 2.95890625 -3 2 C-2.01 1.34 -1.02 0.68 0 0 Z " fill="#0950AE" transform="translate(278,28)"/>
<path d="M0 0 C0.66 0.33 1.32 0.66 2 1 C0.71034824 2.37562854 -0.62689293 3.70766393 -2 5 C-2.66 5 -3.32 5 -4 5 C-4.33 5.99 -4.66 6.98 -5 8 C-5.66 8 -6.32 8 -7 8 C-6.01347016 4.68167234 -5.31268497 3.23451373 -2.5 1.125 C-1.675 0.75375 -0.85 0.3825 0 0 Z " fill="#124185" transform="translate(194,24)"/>
<path d="M0 0 C0.66 0.33 1.32 0.66 2 1 C1.9175 1.763125 1.835 2.52625 1.75 3.3125 C1.70833333 6.14583333 1.70833333 6.14583333 4 7.8125 C4.66 8.204375 5.32 8.59625 6 9 C3.69 8.67 1.38 8.34 -1 8 C-1.125 2.25 -1.125 2.25 0 0 Z " fill="#154898" transform="translate(197,34)"/>
<path d="M0 0 C0.33 0 0.66 0 1 0 C1.66 3.3 2.32 6.6 3 10 C-0.91941982 6.69298952 -0.91941982 6.69298952 -1.3125 3.3125 C-1 1 -1 1 0 0 Z " fill="#134990" transform="translate(187,60)"/>
</svg>
