<?xml version="1.0" encoding="UTF-8"?>
<svg version="1.1" xmlns="http://www.w3.org/2000/svg" width="87" height="82">
<path d="M0 0 C7.37792281 5.27186121 11.06271265 10.59986164 13.1484375 19.53515625 C14.34073144 27.64767171 12.36024693 34.8166834 7.7578125 41.578125 C2.99129418 47.46101208 -2.34676583 51.05880281 -9.8515625 52.53515625 C-19.05367168 53.33108982 -26.779293 52.3090313 -34.1015625 46.41015625 C-39.4857657 41.34836043 -43.30349312 34.95261129 -44.0546875 27.52734375 C-44.25015585 18.69868979 -42.48124067 11.9994858 -36.7265625 5.16015625 C-26.92478514 -4.83011683 -12.45016051 -7.42459738 0 0 Z M-30.7265625 2.66015625 C-33.59832798 6.54548602 -34.11375965 9.75640181 -33.8515625 14.53515625 C-32.40062013 19.5650898 -29.76133972 21.83626665 -25.38671875 24.37109375 C-21.23333461 26.27819463 -16.9055082 27.50741486 -12.51171875 28.73828125 C-9.8515625 29.53515625 -9.8515625 29.53515625 -8.8515625 30.53515625 C-8.81075467 32.53473989 -8.80901894 34.53560879 -8.8515625 36.53515625 C-12.04389735 38.13132368 -15.38617747 38.04981739 -18.8515625 37.53515625 C-21.28275873 35.66500531 -22.49225423 34.2537728 -23.8515625 31.53515625 C-27.1515625 31.53515625 -30.4515625 31.53515625 -33.8515625 31.53515625 C-33.56231224 36.35599384 -32.79329004 39.64349597 -29.421875 43.24609375 C-24.44505213 47.33154536 -18.58070176 48.04211041 -12.3125 47.8203125 C-6.97434668 47.20176458 -3.14699411 45.89702025 0.5859375 41.97265625 C3.48242274 37.45413928 4.02058156 33.85523499 3.1484375 28.53515625 C0.71878472 23.41695326 -3.04091138 21.19641849 -8.2265625 19.28515625 C-10.09547686 18.68261009 -11.97043918 18.09843046 -13.8515625 17.53515625 C-16.64266123 16.664049 -19.16753431 15.72805767 -21.8515625 14.53515625 C-22.62109375 12.55078125 -22.62109375 12.55078125 -22.8515625 10.53515625 C-21.9140625 8.78515625 -21.9140625 8.78515625 -19.8515625 7.53515625 C-16.258116 6.98231833 -13.02432503 6.71422248 -9.9765625 8.84765625 C-8.93489583 10.41015625 -7.89322917 11.97265625 -6.8515625 13.53515625 C-4.64431177 13.89878443 -4.64431177 13.89878443 -2.2265625 13.72265625 C-1.40929688 13.69558594 -0.59203125 13.66851562 0.25 13.640625 C1.18972656 13.58841797 1.18972656 13.58841797 2.1484375 13.53515625 C1.87091428 7.70485064 1.87091428 7.70485064 -0.9140625 2.72265625 C-10.48212564 -4.40249715 -21.05387387 -4.4892223 -30.7265625 2.66015625 Z " fill="#084397" transform="translate(55.8515625,19.46484375)"/>
<path d="M0 0 C0.99 0.33 1.98 0.66 3 1 C3.33 3.64 3.66 6.28 4 9 C4.804375 9.0825 5.60875 9.165 6.4375 9.25 C10.16953274 10.0356911 13.11956667 11.34528931 16.55078125 12.953125 C19.92705243 14.39625208 23.38982819 15.34627667 26.93359375 16.2890625 C29 17 29 17 31 19 C31.3125 22 31.3125 22 31 25 C27.32995329 27.4466978 24.26442613 27.83795144 20 27 C17 24.625 17 24.625 15 22 C15 21.34 15 20.68 15 20 C11.7 20 8.4 20 5 20 C5.165 20.680625 5.33 21.36125 5.5 22.0625 C6.07089059 25.4164822 6.06659023 28.60389805 6 32 C4.68 32 3.36 32 2 32 C-1.97437158 27.71570036 -4.39204621 22.66899323 -4.5 16.8125 C-4.22309474 12.63254916 -3.49817757 8.9119081 -2 5 C-1.34 4.67 -0.68 4.34 0 4 C-0.33 3.34 -0.66 2.68 -1 2 C-0.67 1.34 -0.34 0.68 0 0 Z " fill="#0449A9" transform="translate(17,31)"/>
<path d="M0 0 C-0.33 0.66 -0.66 1.32 -1 2 C-1.92619141 1.67515625 -1.92619141 1.67515625 -2.87109375 1.34375 C-9.98213925 -0.99412797 -16.61424374 -2.53740987 -23.8125 0.25 C-27.97609543 2.50166162 -27.97609543 2.50166162 -31 6 C-32.73572344 12.16481083 -31.96348689 16.42864464 -29 22 C-30.65 21.67 -32.3 21.34 -34 21 C-34.12117188 20.43410156 -34.24234375 19.86820313 -34.3671875 19.28515625 C-34.53476562 18.55167969 -34.70234375 17.81820312 -34.875 17.0625 C-35.03742187 16.33160156 -35.19984375 15.60070312 -35.3671875 14.84765625 C-35.82961523 12.79299706 -35.82961523 12.79299706 -38 12 C-37.67 13.65 -37.34 15.3 -37 17 C-37.99 17 -38.98 17 -40 17 C-40.66 21.29 -41.32 25.58 -42 30 C-42.33 30 -42.66 30 -43 30 C-43.46618963 20.36541425 -42.22108982 13.16721147 -35.875 5.625 C-26.4949737 -3.93541142 -12.09256041 -7.07857195 0 0 Z " fill="#094599" transform="translate(55,19)"/>
<path d="M0 0 C3.125 0.375 3.125 0.375 6 1 C5.67 1.99 5.34 2.98 5 4 C6.98 3.67 8.96 3.34 11 3 C11.05451714 5.04136395 11.09302485 7.08315856 11.125 9.125 C11.14820312 10.26195312 11.17140625 11.39890625 11.1953125 12.5703125 C10.99481635 16.09102485 10.36747681 18.75821931 9 22 C7 23.25 7 23.25 5 24 C4.34 24.66 3.68 25.32 3 26 C3.165 25.38125 3.33 24.7625 3.5 24.125 C3.9532747 21.29203314 4.00140871 18.85458903 3.9375 16 C3.88649589 12.2030277 4.17647705 9.41910553 6 6 C5.34 6.66 4.68 7.32 4 8 C1.375 7.625 1.375 7.625 -1 7 C-1.625 4.625 -1.625 4.625 -2 2 C-1.34 1.34 -0.68 0.68 0 0 Z " fill="#0249AD" transform="translate(56,35)"/>
<path d="M0 0 C0.66 0.33 1.32 0.66 2 1 C2 1.99 2 2.98 2 4 C3.32 4.33 4.64 4.66 6 5 C5.67 5.66 5.34 6.32 5 7 C6.98 7 8.96 7 11 7 C10.01 8.485 10.01 8.485 9 10 C4.38 9.34 -0.24 8.68 -5 8 C-3.68 7.67 -2.36 7.34 -1 7 C-1.20625 6.401875 -1.4125 5.80375 -1.625 5.1875 C-2 3 -2 3 0 0 Z " fill="#014CA8" transform="translate(43,28)"/>
<path d="M0 0 C0.845625 0.495 1.69125 0.99 2.5625 1.5 C2.2325 2.16 1.9025 2.82 1.5625 3.5 C0.94503906 3.2834375 0.32757813 3.066875 -0.30859375 2.84375 C-9.30624691 -0.11438254 -15.76531629 -0.83609185 -24.4375 3.5 C-26.1017135 4.17276716 -27.76736582 4.84206835 -29.4375 5.5 C-28.4375 2.5 -28.4375 2.5 -26.8984375 1.33203125 C-18.86012152 -2.59680858 -8.37668729 -3.56563675 0 0 Z " fill="#1E3D71" transform="translate(52.4375,17.5)"/>
<path d="M0 0 C3.59905908 0.55550695 4.99909799 1.74887248 7.25 4.5625 C8.03117187 5.52349609 8.03117187 5.52349609 8.828125 6.50390625 C9.21484375 6.99761719 9.6015625 7.49132812 10 8 C8.35 7.67 6.7 7.34 5 7 C5 8.98 5 10.96 5 13 C4.67 13 4.34 13 4 13 C3.51891725 11.58398286 3.04021859 10.16715563 2.5625 8.75 C2.29566406 7.96109375 2.02882812 7.1721875 1.75390625 6.359375 C1.08045292 4.25178012 0.50849405 2.15246027 0 0 Z " fill="#0D438E" transform="translate(54,20)"/>
<path d="M0 0 C0.144375 0.598125 0.28875 1.19625 0.4375 1.8125 C0.8872439 3.56150404 1.42892341 5.28677023 2 7 C1.01 7 0.02 7 -1 7 C-1.66 11.29 -2.32 15.58 -3 20 C-3.33 20 -3.66 20 -4 20 C-4.33358143 13.10598384 -3.47557267 7.46470791 -1 1 C-0.67 0.67 -0.34 0.34 0 0 Z " fill="#0C428B" transform="translate(16,29)"/>
<path d="M0 0 C-1.01940388 2.7801924 -1.69720287 3.82814217 -4.3125 5.3125 C-7.2923726 6.07479299 -9.0709637 5.83686751 -12 5 C-4.5 0 -4.5 0 0 0 Z " fill="#0749A0" transform="translate(56,64)"/>
<path d="M0 0 C4.34464536 0.60825035 8.67551867 1.26167392 13 2 C13 2.66 13 3.32 13 4 C11.3973218 4.10824843 9.79254252 4.18570645 8.1875 4.25 C7.29417969 4.29640625 6.40085937 4.3428125 5.48046875 4.390625 C3 4 3 4 1.17578125 1.984375 C0.78777344 1.32953125 0.39976563 0.6746875 0 0 Z " fill="#0547A5" transform="translate(30,67)"/>
<path d="M0 0 C1.32 0.66 2.64 1.32 4 2 C4.1875 4.875 4.1875 4.875 4 8 C0.91111478 10.05925681 0.29064073 10.2390374 -3.1875 10.125 C-5.0746875 10.063125 -5.0746875 10.063125 -7 10 C-7 9.67 -7 9.34 -7 9 C-3.535 8.505 -3.535 8.505 0 8 C0.79953138 4.71303767 1.09658936 3.28976808 0 0 Z " fill="#0E4493" transform="translate(44,48)"/>
<path d="M0 0 C2.27270745 0.78659095 4.54308004 1.5790261 6.8125 2.375 C7.45509766 2.59671875 8.09769531 2.8184375 8.75976562 3.046875 C11.81686717 4.1239885 14.28592791 5.19061861 17 7 C15.68 7.33 14.36 7.66 13 8 C13 7.34 13 6.68 13 6 C9.7 6 6.4 6 3 6 C2.67 4.68 2.34 3.36 2 2 C1.34 2 0.68 2 0 2 C0 1.34 0 0.68 0 0 Z " fill="#104191" transform="translate(26,41)"/>
<path d="M0 0 C5.68093647 -0.11139091 10.53750736 0.58379821 16 2 C9.92972642 4.1583195 4.40629424 4.20852314 -2 4 C-2 3.67 -2 3.34 -2 3 C0.64 3 3.28 3 6 3 C6 2.34 6 1.68 6 1 C4.02 1 2.04 1 0 1 C0 0.67 0 0.34 0 0 Z " fill="#0A3D89" transform="translate(37,68)"/>
<path d="M0 0 C0.66 0.33 1.32 0.66 2 1 C1.34 4.63 0.68 8.26 0 12 C-0.33 12 -0.66 12 -1 12 C-1 10.02 -1 8.04 -1 6 C-2.32 6.33 -3.64 6.66 -5 7 C-3.70700306 4.11562221 -2.34058637 2.12780579 0 0 Z " fill="#174F96" transform="translate(22,22)"/>
<path d="M0 0 C3.0109362 2.0072908 3.63016497 2.83884224 5 6 C5.66 6 6.32 6 7 6 C7.33 8.31 7.66 10.62 8 13 C4.3260401 9.62392874 1.94593446 6.60879214 0 2 C0 1.34 0 0.68 0 0 Z " fill="#0F4390" transform="translate(13,51)"/>
<path d="M0 0 C0.66 0.33 1.32 0.66 2 1 C2 1.99 2 2.98 2 4 C3.32 4.33 4.64 4.66 6 5 C3 7 3 7 -1 7 C-1.625 5.1875 -1.625 5.1875 -2 3 C-1.34 2.01 -0.68 1.02 0 0 Z " fill="#094EB1" transform="translate(43,28)"/>
<path d="M0 0 C0.66 0 1.32 0 2 0 C2 2.31 2 4.62 2 7 C2.66 7 3.32 7 4 7 C4 7.66 4 8.32 4 9 C1.5625 8.25 1.5625 8.25 -1 7 C-1.9375 5.0625 -1.9375 5.0625 -2 3 C-1.34 2.01 -0.68 1.02 0 0 Z " fill="#10408C" transform="translate(34,27)"/>
<path d="M0 0 C2.64 0 5.28 0 8 0 C6.35 1.65 4.7 3.3 3 5 C1.5 3.625 1.5 3.625 0 2 C0 1.34 0 0.68 0 0 Z " fill="#09449B" transform="translate(36,26)"/>
<path d="M0 0 C-1.28813342 0.83878455 -2.58063256 1.67086783 -3.875 2.5 C-4.59429688 2.9640625 -5.31359375 3.428125 -6.0546875 3.90625 C-8 5 -8 5 -10 5 C-9 2 -9 2 -6.125 0.25 C-3 -1 -3 -1 0 0 Z " fill="#2C5173" transform="translate(33,18)"/>
</svg>
